<?xml version="1.0" encoding="utf-8"?>
<!-- Generator: Adobe Illustrator 16.0.0, SVG Export Plug-In . SVG Version: 6.00 Build 0)  -->
<!DOCTYPE svg PUBLIC "-//W3C//DTD SVG 1.1//EN" "http://www.w3.org/Graphics/SVG/1.1/DTD/svg11.dtd">
<svg version="1.1" id="Capa_1" xmlns="http://www.w3.org/2000/svg" xmlns:xlink="http://www.w3.org/1999/xlink" x="0px" y="0px"
	 width="612px" height="792px" viewBox="0 0 612 792" enable-background="new 0 0 612 792" xml:space="preserve">
<path fill="#FFFFFF" d="M89.648,702h199.617V484.453h-71.719v-71.719h71.719v-89.648c0-49.433,40.216-89.648,89.648-89.648h89.648
	v71.719h-71.719c-19.774,0-35.859,16.085-35.859,35.859v71.719h104.343l-11.953,71.719h-92.39V702h161.367
	C571.784,702,612,661.784,612,612.352V179.648C612,130.216,571.784,90,522.352,90H89.648C40.216,90,0,130.216,0,179.648v432.703
	C0,661.784,40.216,702,89.648,702z M35.859,179.648c0-29.659,24.13-53.789,53.789-53.789h432.703
	c29.658,0,53.789,24.13,53.789,53.789v432.703c0,29.659-24.131,53.789-53.789,53.789H396.844V520.313h86.907l23.906-143.438H396.844
	v-35.859h107.578V197.578H378.914c-69.207,0-125.508,56.301-125.508,125.508v53.789h-71.719v143.438h71.719v145.828H89.648
	c-29.659,0-53.789-24.13-53.789-53.789V179.648z"/>
</svg>
