<?xml version="1.0" encoding="utf-8"?>
<!-- Generator: Adobe Illustrator 16.0.0, SVG Export Plug-In . SVG Version: 6.00 Build 0)  -->
<!DOCTYPE svg PUBLIC "-//W3C//DTD SVG 1.1//EN" "http://www.w3.org/Graphics/SVG/1.1/DTD/svg11.dtd">
<svg version="1.1" id="Capa_1" xmlns="http://www.w3.org/2000/svg" xmlns:xlink="http://www.w3.org/1999/xlink" x="0px" y="0px"
	 width="612px" height="792px" viewBox="0 0 612 792" enable-background="new 0 0 612 792" xml:space="preserve">
<path fill="#FFFFFF" d="M612,166.075c-38.497,1.774-37.657,1.629-42.009,1.994l22.8-65.112c0,0-71.168,26.18-89.21,30.863
	c-47.383-42.587-117.813-44.469-168.165-13.522c-41.234,25.349-63.366,68.88-55.984,119.76
	c-80.249-11.136-147.864-49.176-201.247-113.303l-16.884-20.278l-12.616,23.168c-15.945,29.276-21.24,62.75-14.913,94.252
	c2.596,12.924,7.008,25.251,13.12,36.793l-14.484-5.612L30.69,279.28c-1.742,24.583,6.444,53.28,21.898,76.757
	c4.352,6.611,9.955,13.872,17.057,21.035l-7.484-1.149l9.133,27.73c12.004,36.435,36.938,64.622,69.295,80.292
	c-32.315,13.713-58.421,22.463-101.331,36.578L0,533.429l36.261,19.825c13.826,7.56,62.679,32.806,110.949,40.379
	c107.298,16.828,228.104,3.124,309.432-70.122c68.502-61.693,90.979-149.451,86.311-240.776
	c-0.705-13.826,3.081-27.021,10.664-37.148C568.806,225.309,611.906,166.21,612,166.075z M524.943,224.108
	c-12.594,16.814-18.901,38.288-17.771,60.457c4.711,92.118-20.353,163.557-74.502,212.322
	c-63.253,56.969-165.279,79.329-279.908,61.348c-20.759-3.254-42.214-10.543-59.971-17.822
	c35.976-12.378,63.757-23.411,108.624-44.646l62.632-29.645l-69.151-4.427c-33.123-2.119-60.704-18.172-77.658-44.236
	c9.002-0.522,17.682-1.979,26.325-4.389l65.952-18.368l-66.503-16.286c-32.315-7.915-50.735-27.25-60.499-42.079
	c-6.411-9.744-10.599-19.727-13.111-28.93c6.667,1.789,14.442,3.063,26.979,4.305l61.554,6.088l-48.77-38.044
	c-35.14-27.408-49.223-68.586-38.899-108.171c109.67,113.75,238.437,105.201,251.398,108.208
	c-2.853-27.712-2.928-27.777-3.675-30.416c-16.599-58.678,19.779-88.472,36.187-98.557c34.271-21.063,88.673-24.238,126.353,10.464
	c8.139,7.489,19.144,10.436,29.444,7.877c9.245-2.297,16.832-4.73,24.261-7.377l-15.464,44.161l19.741,0.014
	C534.785,210.956,530.317,216.937,524.943,224.108z"/>
</svg>
